<?xml version="1.0" encoding="UTF-8"?>
<svg version="1.1" viewBox="0 0 250 65" xmlns="http://www.w3.org/2000/svg"><path d="m113.63 19.004v3h2v2h2v2h2v-2h2v-2h2v-6h-4v2h-2v-2h-4v3" fill="#ec1c24" fill-rule="evenodd" stroke-width=".25"/><path d="m25.631 5.004v5h-14v24h22v-34h-8v5m40 12v17h8v-34h-8v17m20-12v5h-6v10h6v14h8v-14h6v-10h-6v-10h-8v5m-46 17v12h20v-6h-12v-6h12v-12h-20v12m66 0v12h10v-4h6v4h10v-24h-26v12m32 0v12h8v-18h6v6h6v-12h-20v12m26 0v12h20v-24h-8v12h-6v-12h-6v12m26 0v12h8v-12h6v12h6v-24h-20v12m26 0v12h20v-6h-12v-6h12v-12h-20v12m-102-3v3h2v2h2v2h2v-2h2v-2h2v-6h-4v2h-2v-2h-4v3m-34 34v12h34v-24h-8v12h-6v-12h-6v12h-6v-12h-8v12m40 0v12h8v-24h-8v12m14 0v12h8v-4h6v4h6v-6h-6v-6h6v-12h-6v6h-6v-6h-8v12m26 0v12h8v-24h-8v12" fill="#fcfcfc" fill-rule="evenodd" stroke-width=".25"/></svg>
