<svg xmlns="http://www.w3.org/2000/svg" id="svg" version="1.1" style="display: block;" viewBox="102.78 54.61 195.66 295.78"><path d="M0 0 C10.32512212 7.08351401 17.34804574 17.08418354 20.5625 29.25 C22.95429628 43.07757224 20.38157897 55.75517395 12.84765625 67.5859375 C10.66483989 70.51347945 8.21786272 72.99728162 5.5078125 75.4375 C3.95662762 76.73522414 3.95662762 76.73522414 4.1875 78.8125 C6.24803472 80.34422662 8.30241004 81.74682914 10.4609375 83.12890625 C11.09987946 83.54542953 11.73882141 83.96195282 12.39712524 84.39109802 C14.44805993 85.72564888 16.50522934 87.05024238 18.5625 88.375 C19.94310936 89.27216965 21.32332306 90.16994845 22.703125 91.06835938 C28.80838311 95.17784848 28.80838311 95.17784848 35.1875 98.8125 C35.72332255 106.98379393 33.84316926 113.50116147 30.1875 120.8125 C20.2875 120.8125 10.3875 120.8125 0.1875 120.8125 C3.09112769 149.08466438 9.04902308 168.53240229 29.1875 188.8125 C29.82558594 189.48796875 30.46367187 190.1634375 31.12109375 190.859375 C35.25848468 195.18528014 39.85449071 198.88343532 44.5390625 202.6015625 C47.25731219 204.8707798 49.72383365 207.27094736 52.1875 209.8125 C52.71214844 210.35132813 53.23679687 210.89015625 53.77734375 211.4453125 C66.39475488 225.41589526 72.14488932 245.56311033 71.59375 264.1640625 C71.1875 266.8125 71.1875 266.8125 69.1875 269.875 C27.76624705 296.62622586 -52.41665855 288.79083371 -98.13452148 279.47802734 C-106.76470619 277.52789444 -115.59742059 274.80088606 -122.13671875 268.61328125 C-124.32219835 264.96062653 -124.19441806 262.03186579 -123.8125 257.9375 C-123.75199463 257.18863525 -123.69148926 256.43977051 -123.62915039 255.66821289 C-121.4018596 232.14633363 -110.57448859 213.93419299 -92.8125 198.8125 C-90.98272048 197.34971016 -89.1494307 195.89129944 -87.3125 194.4375 C-69.59635755 179.99745786 -56.64427031 160.57689844 -54.0078125 137.55859375 C-53.44279024 131.97678821 -53.15058633 126.42473309 -52.8125 120.8125 C-62.7125 120.8125 -72.6125 120.8125 -82.8125 120.8125 C-87.3125 109.5625 -87.3125 109.5625 -87.5625 104.6875 C-87.61921875 103.75679688 -87.6759375 102.82609375 -87.734375 101.8671875 C-87.77304688 100.85011719 -87.77304688 100.85011719 -87.8125 99.8125 C-83.43824806 96.81587556 -79.05994675 93.82530326 -74.67773438 90.84033203 C-73.18668784 89.8234435 -71.69677339 88.804893 -70.20800781 87.78466797 C-68.07129684 86.32083602 -65.93062257 84.8629754 -63.7890625 83.40625 C-62.78741562 82.71722595 -62.78741562 82.71722595 -61.76553345 82.01428223 C-57.04024341 78.8125 -57.04024341 78.8125 -54.8125 78.8125 C-54.8125 78.1525 -54.8125 77.4925 -54.8125 76.8125 C-55.40289062 76.55082031 -55.99328125 76.28914063 -56.6015625 76.01953125 C-64.81291 71.53665779 -68.54867185 62.09254725 -71.8125 53.8125 C-74.96531675 42.94525598 -73.94304203 29.71371873 -69.296875 19.5078125 C-67.13549846 15.58320773 -64.81077656 12.14146883 -61.8125 8.8125 C-61.2659375 8.19761719 -60.719375 7.58273438 -60.15625 6.94921875 C-44.21239039 -9.97301406 -19.65159102 -11.62336195 0 0 Z " transform="translate(226.8125,62.1875)" style="fill: #5C9747;"/><path d="M0 0 C0.95710478 1.60656874 1.90373015 3.22029465 2.796875 4.86328125 C3.63285161 6.347954 4.5230523 7.80285716 5.453125 9.23046875 C11.63306495 18.79689094 15.56232832 29.50572739 14 41 C10.93849348 55.18956673 4.0683739 67.08536865 -8.24609375 75.1171875 C-11.13396637 76.81113399 -14.03744628 78.44102503 -17 80 C-15.47147075 83.53675651 -13.3583611 85.99564746 -10.75 88.8125 C-9.95207031 89.69679688 -9.15414062 90.58109375 -8.33203125 91.4921875 C-6.95387709 92.97422263 -5.54496343 94.43011571 -4.07421875 95.8203125 C-0.68488968 99.16919612 0.40070877 101.49921104 0.5625 106.3125 C0.42998335 112.08139137 -1.23119685 116.10398951 -3 122 C-28.08 122 -53.16 122 -79 122 C-83.5 111.875 -83.5 111.875 -83.75 106.9375 C-83.80671875 105.99777344 -83.8634375 105.05804688 -83.921875 104.08984375 C-83.94765625 103.40019531 -83.9734375 102.71054688 -84 102 C-79.62574806 99.00337556 -75.24744675 96.01280326 -70.86523438 93.02783203 C-69.37418784 92.0109435 -67.88427339 90.992393 -66.39550781 89.97216797 C-64.25879684 88.50833602 -62.11812257 87.0504754 -59.9765625 85.59375 C-59.30879791 85.13440063 -58.64103333 84.67505127 -57.95303345 84.20178223 C-53.22774341 81 -53.22774341 81 -51 81 C-51 80.34 -51 79.68 -51 79 C-51.59039062 78.73832031 -52.18078125 78.47664063 -52.7890625 78.20703125 C-61.00041 73.72415779 -64.73617185 64.28004725 -68 56 C-71.15281675 45.13275598 -70.13054203 31.90121873 -65.484375 21.6953125 C-63.32299846 17.77070773 -60.99827656 14.32896883 -58 11 C-57.4534375 10.38511719 -56.906875 9.77023438 -56.34375 9.13671875 C-41.71232305 -6.39254576 -19.02937952 -9.51468976 0 0 Z " transform="translate(223,60)" style="fill: #7FB44B;"/><path d="M0 0 C13.38820611 1.00846228 26.51203371 3.03928884 35.9609375 13.58203125 C38.70622651 19.97050455 36.70752054 27.85180037 35.42578125 34.44140625 C35.26179337 35.31893051 35.09780548 36.19645477 34.92884827 37.10057068 C34.39882835 39.92295595 33.85659747 42.74279736 33.3125 45.5625 C32.94133003 47.50711586 32.57040002 49.45177754 32.19970703 51.39648438 C31.47060236 55.21089979 30.73529706 59.02405015 29.99560547 62.83642578 C29.16088929 67.14576487 28.35825199 71.45994094 27.56640625 75.77734375 C23.23227852 98.84368914 23.23227852 98.84368914 14.4375 106.4375 C4.29701423 112.83017027 -6.59945363 113.60400953 -18.22021484 113.41162109 C-20.49752833 113.3750397 -22.7732035 113.37060405 -25.05078125 113.37109375 C-36.34670877 113.31760932 -47.3822823 112.46765187 -58.1875 108.9375 C-59.78658203 108.42509766 -59.78658203 108.42509766 -61.41796875 107.90234375 C-64 107 -64 107 -66 106 C-63.78766618 88.41576054 -51.99404814 76.67664981 -38.69140625 66.13671875 C-19.11198336 50.59253251 -5.4812596 30.98315714 -2 6 C-1.37743972 3.98583438 -0.72433347 1.97984481 0 0 Z " transform="translate(175,193)" style="fill: #80B44B;"/><path d="M0 0 C1.6328125 1.1015625 1.6328125 1.1015625 3.8203125 3.1015625 C3.92044617 9.30984975 2.9986106 12.50209003 -1.1171875 17.2265625 C-5.69673736 21.90788013 -10.59962318 25.69202563 -16.1796875 29.1015625 C-16.88222656 29.53597656 -17.58476562 29.97039062 -18.30859375 30.41796875 C-23.08315712 33.09957283 -26.71890405 33.76062257 -32.1796875 33.1015625 C-35.20854937 28.5582697 -34.94355537 24.42135661 -34.1796875 19.1015625 C-31.16439021 10.80949495 -25.82258816 3.89479833 -17.8359375 -0.05859375 C-12.38944338 -1.78064704 -5.34778874 -2.20428568 0 0 Z " transform="translate(203.1796875,65.8984375)" style="fill: #B1DF67;"/></svg>