<svg xmlns="http://www.w3.org/2000/svg" display="block" viewBox="135 102 741 804">
  <path fill="#036137" d="m491 104 7 5c2 7 1 13 0 20l4 4 3 5 4 4 3 5 5 5h21l20-1c2 2 2 2 4 11a482 482 0 0 1 1 60l1 6 10 3 3-5 5-5c9-11 17-23 24-36l6-8 3-5 4-4 3-4h10l13 15c10 13 10 13 25 21l4-1 1-11 8-14c7-2 12-2 19-2 5 4 5 4 8 10 1 18 1 18-5 27l-9 6c-10 0-10 0-15-3l-1-2h-10c-10 0-10 0-16-3l-4-4-4-3c-7-6-12-13-17-21l-6 2-1 4-6 8-3 6-11 16-3 5-13 15-1 3 5 2a978 978 0 0 1 36 22l23 10 6 2 11 4 11 4 6 2c12 4 12 4 16 8 0 7 0 7-2 10l-2 8-6 16-12 36c-2 7-5 11-9 17l-6 13-4 8-2 5c9-7 17-16 25-24 5-5 5-5 14-8 8-10 9-24 9-36 1-10 3-23 9-31l4-4 6-7c5-5 10-10 18-13h11l6-1 10 4 8 13v19c0 6 0 6-3 13 7-4 12-11 17-18l2-6 9-17 2-5c5-8 11-16 18-23l4-5 10-7c18-1 18-1 27 5 7 6 9 8 13 17 1 10-1 18-5 28-7 12-15 19-26 27l-7 6h-3l-2 4-11 6-3 2 5 1c7 1 10 3 15 8l6 7 5 5c8 11 12 20 12 33 0 8 0 15-3 23l-3 3-2 4c-8 14-16 23-31 30-10 3-18 3-28 3l-9-4-5-2-9 4c-10 3-18 2-28 0-9 1-11 2-18 7l-8 4a435 435 0 0 0-27 17l-6 4-8 4c-12 7-12 7-23 16l-8 4-18 10-16 8-14 7-14 8-7 4 4 6c1 10-1 16-5 25l-7 7-7 8-4 4v22c0 8 1 12 5 18a1651 1651 0 0 0 12 15l7-3c15-1 27 7 40 13l10 5c15 6 29 15 42 24l5 3c4 3 4 3 6 7 0 11-7 19-13 28-11 15-11 15-20 18l-1 3h-2l-1 3h-2l-1 3h-2l-1 3-5 4-5 5-15 15-7 8-3 4c-6 6-11 12-15 19l-3 4h-2l-2 5-5 7c-5 6-5 6-5 10l3 1 4 5 3 2v2l5 2 5 5 5 4 5 4 20 14c5 3 5 3 8 8 0 7 0 7-3 12-4 2-4 2-13 2l-13-3c-22-5-43-6-65-8l-10-1h-7l-13-3-21-2-15-4c-5-8-3-16-3-25v-6c0-10 1-18 6-27l3-1v-5c0-6 0-6 4-13h2l2-4 15-11c6-4 10-8 14-13l4-1 2-4 7-8 4-4 3-3h2l1-3h2l1-3 5-5h2c2-4 3-7 3-12l-6-2-3-2v-2l-4-2-4-2c-7-4-15-6-22-9l-8-3-8-2-18-7-8-3-1-3-12 7-23 8-8 3-9 2-7 4-8 2-8 2-1 3h-2l-1 3-9 9-3 4a213 213 0 0 0 10 21l4 2 4 5v2l4 2 10 18 2 4-1 38v6a109 109 0 0 1-5 32l-6 10c-7 3-14 2-21 1l-24-7c-6-2-12-3-19-3-17 0-17 0-23-3l-15-1c-17-2-31-4-47-10l-6-2c-4-1-4-1-8-5l-1-9c3-5 3-5 10-8l12-5c6-2 10-5 15-8l8-3 7-7c0-8-2-16-4-24l-1-6-3-13-4-21-8-32-2-5-3-9-1-21 4-7h2l1-3c6-3 9-3 16-4l8-2 7-2 20-5c17-5 34-10 52-13 6-1 12-4 18-7l8-3 5-5c7-7 7-7 13-10l5-5-3-3-3-5-5-3-7 2-1 4c-9 11-19 16-32 20-8 0-13 0-20-3l-4-6c-3-2-3-2-11-1l-9-1c-6-6-8-11-12-19v-24l-4-5-4-8-5-5-5-5-13-10-6-6v-2l-4-1-17-16-5-6-8-11-5-5c-6-6-9-11-13-18l-3-4-3-9-3-6-1-8-1-8-7-4c-24-18-24-18-28-29-2-22-2-22 3-33l-5-2c-35-24-35-24-42-39v-19c0-6 0-6 3-13 7-7 7-7 13-10 20-1 20-1 29 4l6 3c6 3 6 3 11 8l1 3 4 1 5 5 9-13 16-11 8-4c14-8 28-9 44-8a96 96 0 0 1 26 19c4 3 4 3 8 10l1 6 1 6h10c17 8 17 8 22 15l3-9 6-15 2-6 8-18 11-25 3-5 4-12 8-18 13-28c4-8 8-15 14-22h2l2-5 5-5c12-1 22 3 34 7l8 2 19 9 8 4 19 9 6 3 24 12v-37c0-7 1-14-1-21-7-2-7-2-16 1h-11l-6 1c-5-1-5-1-13-7l-8-11-4-4-3-5-1-1h-8c-8-1-8-1-16-7-2-6-1-10-1-16l8-11c7-2 13-1 20 1ZM336 396l-5 3-12 12-6 5-1 4 4 9c4 16 6 31 5 48l1 4c7-4 11-7 15-14l5-5 6-9 3-1 3-6 12-12c5-4 5-4 6-9l-11-8c-6-5-6-5-10-11l-3-2-5-12c-3 0-5 3-7 4Z"/>
  <path fill="#fcfdfc" d="M443 186c15 4 30 9 44 16l7 3 22 11 5 3a1377 1377 0 0 1 105 56c6 4 9 5 16 6l14 6v1h-38a2242 2242 0 0 0-32 1h-6l-14-1-4-6a80 80 0 0 0-40-28l-8-2v-2h-7l-15-5-9-3-15-6h-13c-6 7-10 14-14 22l-3 5-6 12-2 5-5 11-6 11-4 16-9 24-3 7-3 6-1 4-3 11-3 14c9 13 25 21 40 27l11 6 1 12v12l-5 2-2 3c-4-1-4-1-8-5-6-6-13-11-20-15h-6l-1 4c-5-1-5-1-12-7l-8-4c-19-11-19-11-25-20l-4-6-2-9 8-6c3-5 1-13 0-19 0-5 0-5 4-14l2-6 5-15 2-7 8-17 11-26 2-5 5-12 11-23 10-21c10-25 10-25 23-27ZM837 260h13c11 7 11 7 14 13 0 11-2 17-8 27-5 6-10 11-17 15l-4 4-8 5-3 4-5 2-7 5-5 2-7 5c0 5 0 5 2 6h7l3-3h11l1 2-2 1v6l11 9c6 7 10 12 14 21l3 6c1 16-2 25-11 38-6 9-11 14-20 19l-7 2-2 1c-9 0-14 0-22-4-4-4-5-9-6-14l7-3 2-1h7v-2l12-5 1-1v-5l-1-1-15 3-9 3-1 1h-9c-4-7-4-7-5-13l10-8c7-5 7-5 11-11 3-4 3-4 8-7v-5l-1-1h-8l-7 8-5 4-2 4-5 3-4 4-8 3c0 9 2 14 7 22l2 5 6 12v4c-9 5-14 6-24 5l-3-6-6-7-4-9-13-20-2-6-4-2-13-17c1-7 1-7 4-12l2-10 2-5 1-12 3-18v-5c1-5 1-5 7-12h2l2-4c6-7 6-7 14-12h16l6 7c1 12 0 22-5 33-6 8-6 8-11 11v6l1 1c8 1 8 1 16-4l3-3 5-2c11-5 16-12 23-21l7-14c9-18 19-33 33-47Z"/>
  <path fill="#fcfdfd" d="M460 245c8 0 14 4 21 7l1 1 4 1c22 4 22 4 26 8l4 1c11 2 20 7 29 12l8 11 3 3 3 5 3 3v2a705 705 0 0 0 70 0h13l28 1-10 6-6 3-12 6-4 3-5 2-3 2-6 2-3 2-6 2-9 4-18 5c-5 1-5 1-10 5v11h2l4 10-20 1h-5v2h-12l-9-9-5-5-16-20-18-16-5-7 7-5v-5l-1-1c-7 0-7 0-15 4l-11 2-1 1v6l4 2c-3 9-6 18-11 26l-5 15-5 20-3 7-4 7-1 7-5 10c-16-2-31-12-43-22 1-8 3-13 6-20l2-9a672 672 0 0 1 11-28l2-6 4-14c4-11 9-21 15-31l4-9 6-10 3-5 4-6Z"/>
  <path fill="#cce567" d="m305 429 2 9 2 7c3 14 2 28 2 43v7l11 1 13-12 6-5a717 717 0 0 0 16-19l7-10 13-12 5-8c7 3 7 3 13 8l-6 12c-3 6-2 11-2 18 4 7 10 13 16 19v2h-2v2l-8 3-2 4-8 5c-5-1-5-1-11-5h-6l-1 1c0 12 1 17 8 28l3 7 7 8 2 3c-12 7-22 11-36 11-9 1-13 3-20 8h-2l-2 4-3 3h-2l-2-4c-5-9-12-16-21-22l-4-4-5-3-6-7-6-3c-8-7-15-15-21-24l-10-12c-6-6-6-6-9-12l-4-7c-4-10-6-16-6-27h11c11 0 19-1 29-6l18-6 21-5Z"/>
  <path fill="#fbfdfc" d="M169 310c10 4 16 8 23 15l5 3 5 5v3h-2c0 11 1 19 6 29l3 6c3 6 3 6 9 12l16 1h16l2-4 6-6 12-1c9 1 15 0 23-5l11-10 4-4c5-4 8-8 9-14l12-1c7 3 11 6 15 13 3 8 3 15 0 23-4 7-6 9-13 12-8 6-15 12-21 19l-5 4-5 8-10 4-5 2-10 4-19 7c-8 2-16 1-23 1h-19l-5-4-5-4c-12-10-12-10-14-14-2-20-2-20 3-30v-8l-10-5c-21-14-21-14-30-23l-4-4c-3-4-3-4-4-10v-12c1-5 1-5 6-11 5-3 12-1 18-1Z"/>
  <path fill="#b3d638" d="M691 386h6l7 10 9 10 3 5 4 5 7 12 5 8 4 9-1 3-8 3-7 5-5 2-17 11c-6 5-12 8-19 11l-1 2-8 3-1 2-8 4c-7 4-7 4-13 10l-17 8-13 9-12 5-13 7-32 16-8 4-8-6 4-6 5-2 7-8 7-7 4-5c4-6 8-11 15-15l6-10 7-11a287 287 0 0 0 20-27l3-4c3-6 7-10 11-15l4-4c3-4 3-4 11-6l10-8 8-6 18-19 6-5Z"/>
  <path fill="#b2d638" d="M514 572h5l2 17 1 2v7l4 2 5 5 9 1 5 1 1 17v16h2l9 12 4 5 4 10-14 8-5 3c-10 3-19 4-30 4h-11l-3-3v-2l-4-2c-9-8-9-8-11-14l-10-2c-3-5-4-9-5-15-1-7-1-7-4-12h-5l-2 2c0 14 0 14 5 26l-1 4-6 4-11 11-4 3c-4-1-4-1-11-7l-6-10c-5-7-10-14-17-19l5-8 7-4 9-10c1-9 1-9-4-14l-4-5-4-5 6-8c6 1 8 5 13 10l20 18h6l16-19 7-7h9c8-5 12-10 16-18l2-4Z"/>
  <path fill="#fbfcfc" d="M682 308c0 8-2 12-5 19l-8 24c-3 8-5 14-10 21l-6 14-4 7-4 8-10 16-2 4-4 4-3 5-9 9-4 8-10 13-8 13-8 9-3 5-2 4c-7 2-15-3-22-5l-9-3-14-6-8-1c-8-2-8-2-15-6-10-5-17-6-28-6h-9c6-10 14-19 23-27 8 0 13 4 19 8a1459 1459 0 0 0 43 20c5 2 5 2 11 2 6-4 6-4 9-13l3-5 8-18 10-18 3-6 5-7 5-12 12-27 2-7 8-17 3-9 12-6 8-4c18-10 18-10 21-10ZM460 521c7 3 7 3 10 7-1 8-5 11-10 17l-4 5c-4 6-9 10-15 15l-3 4-12 11-4 4-10 8-3 6-9 3c-5 4-5 4-9 10-6 7-13 10-22 13h-11l-6-7c-5-4-5-4-13-3l-8-1c-6-7-6-8-7-17 1-10 2-15 8-23 4-4 4-4 9-6l19-1 10-4 6-2 21-11 5-2c6-3 10-7 15-11l13-8 5-4c9-4 16-4 25-3Z"/>
  <path fill="#b3d738" d="M489 318c6 3 9 7 14 11l4 4 15 16 16 18 4 4v3h-2l-1 5-4 4-11 15c-5 8-11 14-18 20l-1 2-4 2-3 5-5 3-7 8-5 5-13 17c-5-2-7-6-10-10l-2-2-1-17-1-10c0-10 2-14 6-23l3-9 3-8 3-8 3-8 4-18 8-18 3-6 2-5Z"/>
  <path fill="#fbfcfc" d="M627 335c0 5-3 10-5 15l-2 7-9 20-4 8c-7 15-7 15-12 20l-4 10-4 7-5 12-10 18-2 4c-13-3-25-9-37-15l-9-4-5-3c-4-3-4-3-9-4l7-9 19-24 12-15 3-5c14-3 27-3 41-3h5l1-12-6-12v-3l14-2v-2l14-5 7-3Z"/>
  <path fill="#fcfdfd" d="M280 298c10 5 19 12 27 20 2 6 1 13 1 20-5 11-13 17-22 24-7 2-16 1-23 1v-3h2l1-11v-7l-1-5h-11v16c0 8-2 14-7 20h-27c-5-7-5-7-7-14l-2-6c-1-8-1-13 3-21l8-10 3-6c12-9 25-16 40-17 5-2 10-1 15-1Z"/>
  <path fill="#c9e365" d="M409 437c8 4 13 8 19 15l3 2-1 18h2l1 5c2 6 2 6 6 11l1 10c-1 9-1 9 1 13l-12 6-1 2-5 2-10 7-5 3-1 2c-8-4-12-11-16-18v-6l15-11 9-9v-5l-5-3-5-5-4-4-5-6c0-10 0-12 5-19l3-5 5-5Z"/>
  <path fill="#b1d538" d="M533 487c13 3 13 3 17 7l5 1 17 5c-1 3-1 3-6 7l-7 10-10 9-1 2-7 4c-3 4-3 4-2 11h-4l-5-5c-7-6-7-6-15-10 4-11 7-20 13-30l5-11Z"/>
  <path fill="#f8faf9" d="m519 541 7 5c-1 6-1 6-4 11-5 4-5 4-10 5l-5 1-4 2v9c-5 8-5 8-9 11l-6 1-7-6v-8l7-7-1-7-9-6-2-7 1-6c15-5 28-6 42 2Z"/>
  <path fill="#f6f9f7" d="M536 554h6l2 2 1 15 1 1h5l6-14h9l3 3c0 9 0 11-5 18-12 14-12 14-19 18h-9c-4-4-4-4-6-13v-12l-1-6c1-5 1-5 7-12Z"/>
  <path fill="#f6f9f8" d="M465 478c5 3 7 6 11 11l5 5 6 7c-3 7-7 11-12 16l-5-2c-7-3-12-4-19-5-2-6-2-12-1-18 5-6 8-10 15-14Z"/>
  <path fill="#afd338" d="M445 574c4 1 4 1 8 6l4 5v2h8c9 0 9 0 12 2v3l-5 3-7 10-5 5-13-12-5-4-6-7c1-6 5-9 9-13Z"/>
  <path fill="#f7faf8" d="m505 476 12 6 1 2-12 13h-11l-11-13-6-7v-2c9-2 18-1 27 1Z"/>
  <path fill="#abd138" d="m512 504 1 3-8 18-16 1-6 1-4 1c2-8 10-15 16-20l12-1 5-3Z"/>
  <path fill="#f2f6f4" d="M444 453c5 1 5 1 11 7l6 7v3l-10 7-5 5c-5-8-5-15-5-24l3-5Z"/>
  <path fill="#add238" d="M466 552h2l6 9c0 4 0 4-3 9l-1 6h-8l-7-8 1-5 6-5 4-6Z"/>
  <path fill="#b6d843" d="m383 485 8 6v3h2l-2 4-5 2-7-7 4-8Z"/>
  <path fill="#b5d73d" d="m408 511 4 1 1 3h2l3 7 3 1-8 4-3-5-5-5 3-6Z"/>
  <path fill="#b6d83c" d="M369 471h2v2l3 1v2h2l-4 8h-6l-4-4 7-9ZM422 495h3l5 5c-1 4-1 4-6 9h-3l-4-5 1-5h2l2-4Z"/>
  <path fill="#aed33c" d="M240 486h12l6 8-6 2-1 3-11-12v-1Z"/>
  <path fill="#b7d93d" d="m354 487 8 5c-1 4-1 4-6 9h-3l-4-5c1-4 1-4 5-9Z"/>
  <path fill="#b1d53c" d="m268 504 1 3h2l1 3-4 2-2 5-9-10v-2l11-1Z"/>
  <path fill="#b6d83c" d="m299 448 3 3v3l-7 5-4-1-3-7c5-3 5-3 11-3Z"/>
  <path fill="#b7d93d" d="M353 515c4 1 4 1 8 5v2h-2v2l-4 3-8-5v-3l6-4Z"/>
  <path fill="#b6d83b" d="M292 472c3 5 3 5 3 8l-11 2-3-7c6-3 6-3 11-3Z"/>
  <path fill="#b7d93d" d="m304 487 4 5v2l-7 4c-4-1-4-1-8-5v-2c8-4 8-4 11-4Z"/>
  <path fill="#b6d83b" d="m280 457 3 7c-8 3-8 3-12 2l-2-6c6-3 6-3 11-3Z"/>
  <path fill="#b7d93d" d="m420 466 10 4c-6 7-6 7-10 8l-4-3 4-9Z"/>
  <path fill="#b6d83b" d="M311 463v8l-4 3h-3l-4-8c5-3 5-3 11-3Z"/>
  <path fill="#b7d93e" d="M337 527h3v2l4 2 2 3-3 1-1 3-10-5v-2l5-4Z"/>
  <path fill="#b1d53c" d="m266 440 5 5-1 4-7 3-3-6-2-2 8-4Z"/>
  <path fill="#b7d93d" d="M324 538v2l5 2 1 3-3 3h-5l-5-5v-3c3-2 3-2 7-2Z"/>
  <path fill="#b3d640" d="m372 527 2 4c-1 3-1 3-7 8l-4-2-1-4 5-5 4 1 1-2Z"/>
  <path fill="#abd13f" d="M334 485v3l-3 4 3 1-1 4-4 3-4-1v-2l-3-1 12-11Z"/>
  <path fill="#add23c" d="m283 520 2 4-6 2-2 3-8-8 4-1h10Z"/>
  <path fill="#b7d93d" d="m324 515 5 1 1 5-5 4-6-4 1-4 4-2ZM312 502l5 1 2 4-4 2-1 2h-5l-3-3 1-3 5-3Z"/>
  <path fill="#a9d03d" d="M385 455h1v12l-4 2-3-2v-2h-2c1-4 1-4 4-7h3l1-3Z"/>
  <path fill="#b6d93c" d="m272 481 3 4-1 3-8 1-4-5v-2l10-1Z"/>
  <path fill="#b7d93c" d="M250 465h9l4 5v2l-9 1-4-5v-3Z"/>
  <path fill="#b6d83e" d="M226 449h7l1 9-6 4-2-13Z"/>
  <path fill="#b0d43a" d="m240 468 3 8-7 1-1 2c-3-6-3-6-3-10l8-1Z"/>
  <path fill="#acd140" d="m356 461 4 3c-1 4-1 4-4 7l-1 2-5-1-4 2 10-13Z"/>
  <path fill="#b5d83b" d="m249 446 3 8-8 2-3-9 8-1Z"/>
  <path fill="#b7d93d" d="m285 497 3 4v2l-4 2c-4-1-4-1-8-5v-3h9ZM340 503l6 3v3l-5 4-4-1v-2h-2l1-4 4-3Z"/>
  <path fill="#b2d53c" d="M288 435v2h2v2c-7 4-7 4-10 4l-3-7c8-2 8-2 11-1Z"/>
  <path fill="#b8d93e" d="m306 525 8 3-1 4-3 2-4-1-3-4v-2l3-2Z"/>
  <path fill="#afd33e" d="m295 533 3 4-3 6c-7-5-7-5-9-9l9-1Z"/>
  <path fill="#b7d93e" d="m405 456 7 2-3 9-6-4 2-7Z"/>
  <path fill="#acd13b" d="m368 446 1 2 4 2-1 4-4 3-4-2v-2l-2-1 6-6Z"/>
  <path fill="#add23c" d="M414 440c7 4 7 4 9 8l-3 3c-4-1-4-1-7-4l1-7Z"/>
  <path fill="#b7d93d" d="m298 512 2 3-1 4-5 1-4-5 1-3h7Z"/>
  <path fill="#add23f" d="m305 546 9 7-2 5-5-5-7-5v-1l5-1Z"/>
  <path fill="#a8cf3b" d="m380 540 5 5c-8 5-8 5-11 5v-6l6-4Z"/>
  <path fill="#b8d93f" d="m352 541 4 1 1 3-6 5-4-2 1-4 4-3Z"/>
  <path fill="#aad03d" d="m343 476 1 2 3 1-5 7-7-1 5-5 3-4Z"/>
  <path fill="#aed23d" d="m433 480 6 9-5 2-4-4 3-7Z"/>
  <path fill="#b5d73d" d="m336 552 4 1 1 3-9 5v-6l4-3Z"/>
  <path fill="#a4cc39" d="M323 563v2l4 1-5 5h-2l-3-7 6-1Z"/>
  <path fill="#aad03e" d="m380 433 3 4-1 5-2 1-5-2 5-8Z"/>
  <path fill="#1b7135" d="m496 427 2 1-8 8-4 5-4 3-2-1 16-16Z"/>
  <path fill="#aed33c" d="m300 428 5 1 1 3-4 2-4-1-2-3 4-2Z"/>
  <path fill="#2a7956" d="m791 375 2 1-13 14h-2l1-3h2l1-3 5-5h2l2-4Z"/>
</svg>
